# xmcd CD database file
#
# Track frame offsets:
#	150
#	10448
#	22302
#	41244
#	51786
#	64806
#	77868
#	94361
#	105030
#	117096
#	129417
#	147995
#	161573
#
# Disc length: 2416 seconds
#
# Revision: 0
# Processed by: cddbd v1.5.2PL0 Copyright (c) Steve Scherf et al.
# Submitted via: CDex 1.70beta2
#
DISCID=b1096e0d
DTITLE=Masson. Kiley Joe - Cdn. - On - 9 Hurtin', 2 Flirtin' and 2 More For Fun
DYEAR=1900
DGENRE=Country
TTITLE0=Crazy Arms
TTITLE1=Swingin' Doors
TTITLE2=Don't Worry About Me
TTITLE3=Singin' the Blues
TTITLE4=If That's the Way You Want It
TTITLE5=She Even Woke Me Up To Say Goodbye
TTITLE6=Satisft Me, I'll Satisfy You
TTITLE7=Jealous Heart
TTITLE8=Is There Something On Your Mind
TTITLE9=Quater On the jukebox
TTITLE10=everything Is Coming Back But You
TTITLE11=The Girls All Get Prettier
TTITLE12=Lock, Stock and Teardrops
EXTD=
EXTT0=
EXTT1=
EXTT2=
EXTT3=
EXTT4=
EXTT5=
EXTT6=
EXTT7=
EXTT8=
EXTT9=
EXTT10=
EXTT11=
EXTT12=
PLAYORDER=
